{
    "asset" : {
        "generator" : "Khronos glTF Blender I/O v1.1.45",
        "version" : "2.0"
    },
    "scene" : 0,
    "scenes" : [
        {
            "name" : "Scene",
            "nodes" : [
                0
            ]
        }
    ],
    "nodes" : [
        {
            "mesh" : 0,
            "name" : "Cube"
        }
    ],
    "meshes" : [
        {
            "name" : "Cube",
            "primitives" : [
                {
                    "attributes" : {
                        "POSITION" : 0,
                        "NORMAL" : 1,
                        "TEXCOORD_0" : 2
                    },
                    "indices" : 3
                }
            ]
        }
    ],
    "accessors" : [
        {
            "bufferView" : 0,
            "componentType" : 5126,
            "count" : 12579,
            "max" : [
                0.6483402252197266,
                0.8924118280410767,
                0.5894182920455933
            ],
            "min" : [
                -0.5589933395385742,
                -0.9901745319366455,
                -0.5894182920455933
            ],
            "type" : "VEC3"
        },
        {
            "bufferView" : 1,
            "componentType" : 5126,
            "count" : 12579,
            "type" : "VEC3"
        },
        {
            "bufferView" : 2,
            "componentType" : 5126,
            "count" : 12579,
            "type" : "VEC2"
        },
        {
            "bufferView" : 3,
            "componentType" : 5123,
            "count" : 44160,
            "type" : "SCALAR"
        }
    ],
    "bufferViews" : [
        {
            "buffer" : 0,
            "byteLength" : 150948,
            "byteOffset" : 0
        },
        {
            "buffer" : 0,
            "byteLength" : 150948,
            "byteOffset" : 150948
        },
        {
            "buffer" : 0,
            "byteLength" : 100632,
            "byteOffset" : 301896
        },
        {
            "buffer" : 0,
            "byteLength" : 88320,
            "byteOffset" : 402528
        }
    ],
    "buffers" : [
        {
            "byteLength" : 490848,
            "uri" : "data:application/octet-stream;base64,"
        }
    ]
}
